<svg xmlns="http://www.w3.org/2000/svg" xmlns:xlink="http://www.w3.org/1999/xlink" viewBox="0 0 486.77 268"><defs><style>.cls-1{fill:#fff;}.cls-2,.cls-4{fill:#e2ebfd;}.cls-3{fill:#f2f6fc;}.cls-4{opacity:0.6;}.cls-5{fill:#dde8fd;}.cls-6{fill:#93b3f4;}.cls-7{fill:#d3e0fc;}.cls-8{fill:#010117;}.cls-9{fill:#3a49cd;}.cls-10{fill:#060632;}.cls-11{fill:#bed2fa;}.cls-12{fill:#6d89cf;}.cls-13{fill:url(#linear-gradient);}.cls-14{fill:url(#linear-gradient-2);}.cls-15{fill:#f4b5b5;}.cls-16{fill:#fc9290;}.cls-17{fill:#60241e;}.cls-18{fill-opacity:0.28;}.cls-19{fill:url(#linear-gradient-3);}.cls-20{fill:#a83f3f;}.cls-21{fill:#b05050;}.cls-22{fill:#ed6966;}.cls-23{fill:#0b0754;}.cls-24{fill:#4e1a4c;}.cls-25{fill:#ff9669;}.cls-26{fill:#fc845b;}.cls-27{fill:url(#linear-gradient-4);}.cls-28{fill:#cc1a20;}.cls-29{fill:#3662c1;}.cls-30{fill:#efa2a2;}.cls-31{fill:url(#linear-gradient-5);}</style><linearGradient id="linear-gradient" x1="263.49" y1="201.89" x2="321.66" y2="201.89" gradientUnits="userSpaceOnUse"><stop offset="0" stop-color="#852a80"/><stop offset="1" stop-color="#4f184d"/></linearGradient><linearGradient id="linear-gradient-2" x1="303.59" y1="200.25" x2="376.46" y2="200.25" xlink:href="#linear-gradient"/><linearGradient id="linear-gradient-3" x1="229.73" y1="204.86" x2="278.88" y2="204.86" xlink:href="#linear-gradient"/><linearGradient id="linear-gradient-4" x1="51.27" y1="201.95" x2="156.37" y2="201.95" gradientUnits="userSpaceOnUse"><stop offset="0" stop-color="#cc1a20"/><stop offset="1" stop-color="#ed1c24"/></linearGradient><linearGradient id="linear-gradient-5" x1="53.22" y1="198.78" x2="94.46" y2="198.78" xlink:href="#linear-gradient-4"/></defs><title>Asset 1</title><g id="Layer_2" data-name="Layer 2"><g id="Layer_1-2" data-name="Layer 1"><rect class="cls-1" x="21.77" width="465" height="268"/><path class="cls-2" d="M203.38,82.51V234.36L20.7,235c.46-6.64-29.61-94.18,8.93-144.2,54.7-71,101.44-13.58,163.14-8.6A100.58,100.58,0,0,0,203.38,82.51Z"/><path class="cls-3" d="M465.56,231.42c-.15,1.9-12.52-.3-12.69,1.56l-77.13.43H203.38V82.51a38.5,38.5,0,0,0,6.63-.86c7.57-1.65,15.5-5.81,23.9-13.64,87-80.79,157.86-58.85,197.64,4.22a195.79,195.79,0,0,1,13.26,25.09C461.72,135.65,469.36,183.4,465.56,231.42Z"/><line class="cls-4" x1="203.38" y1="234.48" x2="203.38" y2="234.36"/><polygon class="cls-5" points="408.17 118.01 408.17 233.41 214 233.41 214 132.99 228.88 132.99 228.88 105.59 243.76 105.59 243.76 142.61 255.81 142.61 255.81 134.34 276.81 134.34 276.81 148.33 285.94 148.33 285.94 116.92 310.4 116.92 310.4 63.05 329.73 63.05 329.73 91.78 334.14 91.78 334.14 67.71 353.48 67.71 353.48 104.78 371 104.78 371 82.03 389.75 82.03 389.75 104.78 393.24 104.78 393.24 118.01 408.17 118.01"/><rect class="cls-6" x="127.94" y="92.25" width="36.98" height="35.88" rx="3.53" ry="3.53"/><rect class="cls-2" x="129.54" y="93.8" width="33.77" height="32.77" rx="3.22" ry="3.22"/><path class="cls-6" d="M145.66,97.08a.77.77,0,1,1,.76.76A.76.76,0,0,1,145.66,97.08Z"/><path class="cls-6" d="M151.84,98.16a.77.77,0,0,1,1-.3.78.78,0,0,1,.3,1,.77.77,0,0,1-1.34-.75Z"/><path class="cls-6" d="M157.13,102.37a.76.76,0,0,1,1.06.23.77.77,0,0,1-.22,1.06.78.78,0,0,1-1.06-.23A.77.77,0,0,1,157.13,102.37Z"/><path class="cls-6" d="M159.76,108.88a.77.77,0,1,1-.77.77A.76.76,0,0,1,159.76,108.88Z"/><path class="cls-6" d="M158.42,116.44a.76.76,0,1,1-1.08,0A.76.76,0,0,1,158.42,116.44Z"/><path class="cls-6" d="M153.61,121.26a.76.76,0,1,1-1.08,0A.76.76,0,0,1,153.61,121.26Z"/><path class="cls-6" d="M145.66,123.74a.77.77,0,1,1,.76.77A.76.76,0,0,1,145.66,123.74Z"/><path class="cls-6" d="M141,98.16a.78.78,0,0,0-1.05-.3.77.77,0,0,0-.29,1,.76.76,0,0,0,1,.29A.77.77,0,0,0,141,98.16Z"/><path class="cls-6" d="M135.69,102.37a.77.77,0,0,0-.83,1.29.78.78,0,0,0,1.06-.23A.76.76,0,0,0,135.69,102.37Z"/><path class="cls-6" d="M133.07,108.88a.77.77,0,1,0,.76.77A.76.76,0,0,0,133.07,108.88Z"/><path class="cls-6" d="M134.41,116.44a.76.76,0,1,0,1.08,0A.76.76,0,0,0,134.41,116.44Z"/><path class="cls-6" d="M139.22,121.26a.76.76,0,1,0,1.08,0A.76.76,0,0,0,139.22,121.26Z"/><path class="cls-6" d="M146.22,109.65a.77.77,0,1,1,.76.76A.76.76,0,0,1,146.22,109.65Z"/><rect class="cls-6" x="146.88" y="100.08" width="0.21" height="9.57"/><rect class="cls-6" x="146.2" y="107.33" width="6.45" height="0.63" transform="translate(-34.58 115.28) rotate(-38.15)"/><path class="cls-7" d="M214,81.65v151H192.76V82.2A96.8,96.8,0,0,0,214,81.65Z"/><path class="cls-7" d="M418.83,97.32v135.3H407.26V72.23A204.54,204.54,0,0,1,418.83,97.32Z"/><rect class="cls-8" y="232.03" width="454.96" height="2.75" rx="1.23" ry="1.23"/><polygon class="cls-9" points="231.41 179.33 228 179.33 232.17 232.11 240.45 232.11 231.41 179.33"/><rect class="cls-10" x="290.77" y="148.19" width="12.82" height="15.98" rx="6.04" ry="6.04" transform="translate(-25.03 61.91) rotate(-11.42)"/><path class="cls-9" d="M228,179.33s18.6-8.73,44.08-2.92l-40.68,2.92Z"/><path class="cls-11" d="M240.45,232.62l-9-53.29s28.5-9.57,50.61,0l13.15,52.95Z"/><path class="cls-12" d="M437.47,216.12c-.5,5.78-3.77,7.56-5.2,7.41s-9.84-3.36-10-2.18,4.87,5,8.41,5.2c0,0-6.68,7.36-11.12,5.24s-4.82-5.5-7.59-6.76-5.13-1.26-4,0,6.16,2.54,7.74,5.34c.37.66.74,1.27,1,1.81l-9.35,0c-3-1.48-5.46-3.51-5.65-5.7,0-.17,0-.32,0-.48l-.29-3.37s-4.8-5.6-2.3-10.24a7,7,0,0,1,1.9-2.21s4.47-2.71,8.12-2.49a43.36,43.36,0,0,0-3.62,7.56c-.28,1-.31,1.75.12,2s1.1-.47,1.74-1.62a58.56,58.56,0,0,0,3.33-8.45s2.69-.27,5.75-.3a40.47,40.47,0,0,1,4.14.12,11.29,11.29,0,0,1,3.57.76l-.49.41c-.46.38-1.19,1-2,1.72-2.41,2.14-5.55,5.15-4.38,5.42.95.22,3.94-1.55,6.59-3.31,2.47-1.63,4.65-3.26,4.65-3.26S438,210.34,437.47,216.12Z"/><path class="cls-12" d="M432.82,216.27s-25.74-1-31.43,6.37a18.68,18.68,0,0,1-5.12,7.2l-.61,1.64s4.46-4.7,6.06-5C401.72,226.49,399.22,217.37,432.82,216.27Z"/><path class="cls-12" d="M397.35,229.79a12.63,12.63,0,0,1-1,1h0c-.16.15-.32.32-.48.49s-.46.56-.68.86h-1.21a14.57,14.57,0,0,1,2.32-2.32h0C396.36,229.78,398.58,228.44,397.35,229.79Z"/><path class="cls-12" d="M373.29,213.06s10.39-5.81,5.54-13.7c0,0-3.88-4.85-8-6.1,0,0,2.21,11.77,0,12.05S369.28,192,369.28,192s-10.94-5.26-15.24-4.85c0,0,6.79,11.49,4.57,11.22s-9.83-11.91-9.83-11.91-11.21-2.08-13,4.57,1.1,10,2.77,10.38,12.32.28,12,1.66-7.47,3.61-11.49,2.36c0,0,4.43,10.94,10.25,10.38s7.61-4.15,11.21-4.43,6.23.7,4.43,1.66-7.89.32-10.8,2.79-5.26,4,.14,5.11,15.09.41,17-3.74Z"/><path class="cls-12" d="M340.89,193.13s29.08,9.41,32.4,19.93a22.07,22.07,0,0,0,2.77,10.11v2.08s-3.05-7.06-4.71-8C371.35,217.22,377.86,208.08,340.89,193.13Z"/><path class="cls-12" d="M378.75,232.14h-1.66a21.63,21.63,0,0,0-1.15-7.16h0a7.18,7.18,0,0,0-.33-.74h0c-.35-.67-.58-1.17-.73-1.53h0c-.85-2.09,1.18.47,1.18.47A19.42,19.42,0,0,1,378.75,232.14Z"/><path class="cls-6" d="M389.81,205s-13.69-7.66-7.3-18.07c0,0,5.11-6.38,10.59-8,0,0-2.92,15.52,0,15.88s2-17.52,2-17.52,14.42-6.94,20.07-6.39c0,0-8.94,15.15-6,14.79s13-15.7,13-15.7,14.78-2.74,17.16,6-1.46,13.14-3.65,13.69-16.25.37-15.88,2.19,9.85,4.75,15.15,3.11c0,0-5.84,14.41-13.51,13.68s-10-5.47-14.78-5.84-8.22.92-5.85,2.19,10.41.42,14.24,3.68,6.94,5.27-.18,6.73-19.9.55-22.45-4.93Z"/><path class="cls-12" d="M432.52,178.76S394.19,191.17,389.81,205a29,29,0,0,1-3.65,13.33v2.74s4-9.31,6.21-10.59C392.37,210.52,383.79,198.47,432.52,178.76Z"/><path class="cls-12" d="M387.72,217.74h0c-.19.48-.5,1.14-1,2h0a9.71,9.71,0,0,0-.44,1h0c-1.31,3.29-1.57,7.83-1.52,11.4h-2.2a25.66,25.66,0,0,1,3.56-13.78h0C386.22,218.29,388.83,215,387.72,217.74Z"/><path class="cls-13" d="M321.66,232.28H269.59a55,55,0,0,1-2-5.93,100.46,100.46,0,0,1-3.06-16.52l0-.22a193.1,193.1,0,0,1-.91-24.69c.08-3.25.21-5.25.22-5.34h0l.33-.13c2.76-1.16,5.41-2.16,7.95-3h0c2.13-.73,4.19-1.36,6.16-1.9a89.92,89.92,0,0,1,9.7-2.11,70.38,70.38,0,0,1,9.57-.89h.38c.76,0,1.49,0,2.19,0A41.42,41.42,0,0,1,314.35,174c.34.13.62.25.86.36l.1,0c.27.12.48.23.62.3l.06,0,.21.12L320,214.34Z"/><path class="cls-14" d="M373.54,223.75c-5.21,2.42-36.24,4.46-39.22,3.6-1.53-.44-7.93-6.08-14.36-13h0c-6.09-6.56-12.23-14.28-14.3-19.83a34,34,0,0,1-.6-21.55s7.92,0,11.15,1.92,21.68,35.94,24.15,36.83,31.7,2.58,35,4.17C375.39,215.88,378.76,221.33,373.54,223.75Z"/><path class="cls-15" d="M297.89,172.89v1.92s.53,6-6.87,6.9-13-2.33-12.81-7c.66-3.6,1.39-6.06,1.43-9a20.33,20.33,0,0,0-.27-3.6l14.34-.31,4.23.68Z"/><path class="cls-16" d="M297.93,162.49l0,10.4a12.27,12.27,0,0,1-5.17,1.15c-6.59,0-13.15-10.6-13.36-11.92Z"/><path class="cls-15" d="M298.77,167.54s-18.36,3.74-20.51-7.73-6-18.71,5.66-21.58,14.73,1.08,16.38,4.73S303.49,166.27,298.77,167.54Z"/><path class="cls-17" d="M303.86,134.43a38.26,38.26,0,0,1-11.16-3c-4.91-2.12-11.09.23-13.1,1.29a3.16,3.16,0,0,1,.49-1.2,2.69,2.69,0,0,0-1,1.53c-.09.07-.13.12-.11.13a3.54,3.54,0,0,0-1.68.11s.46-.06.63.23a.18.18,0,0,0,.07.08c-7.64,3.71-8.33,15.8-5.86,18.59,3,3.36,6.52,10.93,6.52,10.93a6.5,6.5,0,0,0,.75-4.75c-.54-3,2-3,5.24-4.32s.53-5.11,3.36-7.4,13.18-1,13-2.72C304.87,142.53,303.86,134.83,303.86,134.43Z"/><path class="cls-18" d="M269.59,232.28a55,55,0,0,1-2-5.93,100.46,100.46,0,0,1-3.06-16.52l0-.22s.11.13.15.08c2-2.47,7.56-5.16,14.26,4.65,1.34,1.95,7.21,15.65,8.14,17.94Z"/><path class="cls-15" d="M275,232.28a5.59,5.59,0,0,1,.71-3.39s.86-.56,2-1.2c1.7-1,4-2.12,5.08-1.94l.74.16c2.5.6,8.33,2.4,9.21,3.45.72.86,1.71,2,2.39,2.92Z"/><path class="cls-19" d="M278.88,232.28H229.82a3,3,0,0,1,0-1.65c1.46-3.7,4.32-9.78,7.61-16.31,2.42-4.8,5.07-9.85,7.57-14.36,3.48-6.26,6.66-11.5,8.54-13.65a22.08,22.08,0,0,1,5.27-4.28,37.59,37.59,0,0,1,4.93-2.45h0l.33-.13a43.62,43.62,0,0,1,6.12-2s0,1.55,0,3.94c0,6.91-.25,20.85-2.46,24.25a44.77,44.77,0,0,1-3.19,4.06l-.12.14c-.78.91-1.64,1.88-2.54,2.89-5.12,5.74-11.6,12.47-12.39,13.29l-.09.09h.1l13.76.19,4.22.06,8.74.12a3.3,3.3,0,0,1,1.44,1.22A8.89,8.89,0,0,1,278.88,232.28Z"/><path class="cls-18" d="M373.54,223.75c-5.21,2.42-36.24,4.46-39.22,3.6-1.53-.44-7.93-6.08-14.36-13,.31,0,3.26-4.86,16.68,6.88,0,0,3.51,1.56,13.08.68S371.56,220.71,373.54,223.75Z"/><path class="cls-20" d="M343.06,232.19H307.59a2.83,2.83,0,0,1,2.83-2.83h32.64Z"/><polygon class="cls-20" points="342.96 193.56 397.8 193.56 384.65 232.19 329.45 232.19 342.96 193.56"/><polygon class="cls-21" points="398.61 193.55 385.45 232.19 330.26 232.19 343.77 193.55 398.61 193.55"/><path class="cls-22" d="M369,212.51a3.56,3.56,0,0,1-3.29,2.68,2.06,2.06,0,0,1-2.05-2.68,3.57,3.57,0,0,1,3.29-2.67A2.06,2.06,0,0,1,369,212.51Z"/><polygon class="cls-20" points="398.61 193.55 385.45 232.19 359.78 232.19 390.53 193.55 398.61 193.55"/><rect class="cls-10" x="275.24" y="148.19" width="12.82" height="15.98" rx="6.04" ry="6.04" transform="translate(-25.35 58.86) rotate(-11.42)"/><path class="cls-10" d="M277.91,150.17c-.49-.89-1.21-8,.74-13.66a9.09,9.09,0,0,1,4.39-5.35,4.73,4.73,0,0,1,2.26-.59l1.93,0c-6.34,2.69-7.81,17.06-7.32,18.59a.19.19,0,0,0-.05-.1Z"/><path class="cls-10" d="M296.42,165.13a19.67,19.67,0,0,1-16-8.51l.95-.59-.47.29.47-.29a18.51,18.51,0,0,0,15,8h.2l0,1.12Z"/><path class="cls-23" d="M281.88,160.19l-.37.07a3,3,0,0,1-3.54-2.35l-.39-1.91a3,3,0,0,1,2.36-3.54l.36-.07a3,3,0,0,1,3.55,2.35l.38,1.9A3,3,0,0,1,281.88,160.19Z"/><path class="cls-10" d="M297.75,165.5h-1a.93.93,0,0,1-.93-.93h0a.93.93,0,0,1,.93-.93h1a.93.93,0,0,1,.93.93h0A.93.93,0,0,1,297.75,165.5Z"/><path class="cls-24" d="M84.44,148.81s-9,4.58-2.43,14.4c0,0-7.69.89-9.62-1.32a6.23,6.23,0,0,0,.63,1.44s-7.44-1-10.11-3.8,5.65-40.36,25.48-32.68c0,0,17.64,1.61,12.63,21.48s1.57,21,1.57,21a9.39,9.39,0,0,1-2.86.45s-1.21-.71-1.34-1.47a4.63,4.63,0,0,0,.33,1.58s-7.2-.52-10.3-3.79S82.73,152.8,84.44,148.81Z"/><rect class="cls-6" x="89.57" y="143.27" width="12.43" height="15.49" rx="5.85" ry="5.85" transform="translate(-19.83 14.58) rotate(-7.89)"/><path class="cls-25" d="M99.25,188.64c-2.67,2.06-4.36,9.5-8.66,10.73C74.45,204,65.79,184.82,63,175.46a14.21,14.21,0,0,1,5.45-2c1.17-.2,2.41-.35,3.43-.46,1.76-1.49,4.2-7.38,4.35-16.33l.78.16,13,2.87s-.38,4.12-.47,8c-.07,3-.17,3.76.07,4.12,1,.17,2.21,2.77,2.21,2.77h0A83.38,83.38,0,0,1,99.25,188.64Z"/><path class="cls-26" d="M90,159.72s-.39,4.12-.48,8c-7.32-.36-11.06-7.12-12.57-10.86Z"/><path class="cls-27" d="M156.37,227.38s-7.67.28-16,.31h-3c-6.78,0-13.45-.26-16.29-1s-13.43-7.95-22-16.7h0c-.66,1.58-1.16,2.79-1.17,2.88a43.62,43.62,0,0,1-1.18,5.83,70.67,70.67,0,0,1-5.27,13.48H86.94l-35.67,0s6.74-10.38,4.93-37c-.05-.67,6.21-22.13,6.21-22.13s4.86-.85,10.48-1.3c.53.48,1.62,14.6,8.65,15.41,1.14.14,8.47,11.34,8.47,11.34L92.24,187l-2.63-15.18a80.28,80.28,0,0,1,8,2.47,8.86,8.86,0,0,1,4.48,4c4.91,9,20.84,37.91,22.47,38.59s7.26,1.78,13.33,2.89h0c8.13,1.48,16.85,2.89,16.85,2.89Z"/><polygon class="cls-11" points="94.06 232.18 91.5 232.19 91.51 232.18 94.06 232.18"/><path class="cls-25" d="M92.19,163.64s-17.35-.34-17-11.14-1.61-18.12,9.49-18.35,13.09,3.95,13.84,7.59S96.71,163.45,92.19,163.64Z"/><path class="cls-28" d="M140.37,227.69h-3c-6.78,0-13.45-.26-16.29-1s-13.43-7.95-22-16.7h0s1.8-6.89,2.58-8,3.83,10.06,11,14.62S131,224.32,136.48,223C140.14,222.16,140.51,225.45,140.37,227.69Z"/><path class="cls-1" d="M88.78,157.63s.11,1.3,3,1.5c0,0,2.39.17,2.49-1.22A7.06,7.06,0,0,0,88.78,157.63Z"/><path class="cls-10" d="M89.72,162a19.06,19.06,0,0,1-12.3-12.54l1-.26-.52.13.52-.13A18,18,0,0,0,90.05,161l.18.06-.31,1Z"/><path class="cls-6" d="M90.84,162.73l-.93-.29a.91.91,0,0,1-.59-1.14h0a.9.9,0,0,1,1.13-.58l.93.29a.91.91,0,0,1,.59,1.13h0A.91.91,0,0,1,90.84,162.73Z"/><path class="cls-24" d="M93.17,132.71s-4.44,13.16-11.1,15.39-8.87-.41-8.87-.41a19.26,19.26,0,0,0,5.47-11.81S89.44,127.33,93.17,132.71Z"/><path class="cls-24" d="M84.88,136.59s9.05-.51,11.75,2.06c2,1.86,1.9,2.83,2.05,5.31,0,0,4-6.11-.11-10.38C94.25,129.06,84.88,136.59,84.88,136.59Z"/><path class="cls-24" d="M92.79,134.1s-2.27,12.59-10.55,17.16c0,0,8-8.2,8.17-16.42S92.79,134.1,92.79,134.1Z"/><path class="cls-24" d="M62.91,159.53c2.67,2.82,10.11,3.8,10.11,3.8a6.23,6.23,0,0,1-.63-1.44c3.83,3.1,13.23.85,13.23.85-7.5-1.66-5.07-12.48-2.52-12.94a232.61,232.61,0,0,1,5.81-22.88l-.52-.07C68.56,119.17,60.24,156.71,62.91,159.53Z"/><path class="cls-6" d="M79.19,157.52l-.71.1a5.88,5.88,0,0,1-6.61-5l-.51-3.75a5.86,5.86,0,0,1,5-6.6l.72-.1a5.88,5.88,0,0,1,6.6,5l.52,3.74A5.87,5.87,0,0,1,79.19,157.52Z"/><path class="cls-6" d="M74.51,143.87c-.43-.8,1.07-7,3.26-11.81,1.06-2.33,3.74-5.44,5.65-6.24a4.12,4.12,0,0,1,2.36,0,17.9,17.9,0,0,1,2.07.83c-6.29,2-11.75,15.12-11.35,16.49a.34.34,0,0,0,0-.1Z"/><rect class="cls-12" x="73.95" y="146.14" width="6.19" height="7.72" rx="2.92" ry="2.92" transform="translate(-19.98 12.08) rotate(-7.94)"/><path class="cls-25" d="M119.85,221.13s7.44-.43,8.16,0a41.57,41.57,0,0,1,5.8,3.95,43.23,43.23,0,0,1,2.26,3.75s-.71.2-1-.09-2.75-2.87-2.75-2.87l2.5,3.79a2.18,2.18,0,0,1-1.21-.41c-.34-.38-2.67-2.75-2.67-2.75l-.79-.15a8.3,8.3,0,0,1,1.25,1.23,8.11,8.11,0,0,1,.72,1.22,5.48,5.48,0,0,1-.93-.23c-.22-.1-2.31-1.93-2.31-1.93l1.11,1.51a3,3,0,0,1-1-.2,16.28,16.28,0,0,0-2.16-1.67,9.6,9.6,0,0,1-3.26-.55c-.89-.47-3.69-1.56-3.69-1.56Z"/><path class="cls-28" d="M73.91,169.65s-5,1.45-6.11,2.59c0,0,5.21,13.3,12.7,19.5l2-1.42v3.23L90,198.47S73.53,173.67,73.91,169.65Z"/><path class="cls-28" d="M96.78,218.7a70.67,70.67,0,0,1-5.27,13.48H67.8s2.75,0,2.75,0c-.07-.24,4-11.28-2.75-15.81s-9.21-15.67-9.21-15.67l21.52-5.26S89,208.37,91.5,210.84c1.94,1.89,6.46,2,6.46,2Z"/><path class="cls-28" d="M89.61,171.84s2.29,18.09.41,26.63c0,0,3.07-5.65,3.5-6.68L93,188.68l2,.69s-1.74-14.42-3.33-17-2.16-2.77-2.16-2.77Z"/><path class="cls-25" d="M156.37,227.38s-9.6.36-19,.31c-2.32-3.61.52-7.93.52-7.93h0c8.13,1.48,16.85,2.89,16.85,2.89Z"/><path class="cls-29" d="M157.28,232.19H121.81a2.83,2.83,0,0,1,2.83-2.83h32.64Z"/><polygon class="cls-6" points="212.02 193.55 198.87 232.19 143.67 232.19 157.18 193.55 212.02 193.55"/><polygon class="cls-6" points="212.02 193.55 198.99 231.83 198.87 232.19 144.48 232.19 157.99 193.55 212.02 193.55"/><path class="cls-30" d="M183.26,212.51a3.56,3.56,0,0,1-3.29,2.68,2.06,2.06,0,0,1-2.05-2.68,3.57,3.57,0,0,1,3.29-2.67A2.06,2.06,0,0,1,183.26,212.51Z"/><polygon class="cls-29" points="212.02 193.55 198.99 231.83 174 231.83 204.47 193.55 212.02 193.55"/><path class="cls-25" d="M119.86,224.13s-18.26,1.6-28.36,1.15v-9.92c6.62,1.83,28.35,5.77,28.35,5.77Z"/><path class="cls-31" d="M67.8,172.24s-10.44.24-13.67,3.73,3.21,23.22,3.21,23.22S76.8,223,86.54,224.71c0,0,4.25.58,6.24.61,0,0-2-5.67,1.68-9.22,0,0-4.17-1.17-4.35-1.69S67.8,172.24,67.8,172.24Z"/><circle cx="90.77" cy="148" r="1"/><circle cx="96.77" cy="148" r="1"/><path class="cls-24" d="M89.76,146.13h0a.26.26,0,0,1-.21-.29.76.76,0,0,1,.49-.56,2.73,2.73,0,0,1,.69-.26,1.87,1.87,0,0,1,.88,0,1.22,1.22,0,0,1,.78.54.26.26,0,0,1-.08.35.27.27,0,0,1-.35-.09.75.75,0,0,0-.46-.32,1.66,1.66,0,0,0-.66,0,2.86,2.86,0,0,0-.58.21c-.18.1-.21.17-.21.19A.26.26,0,0,1,89.76,146.13Z"/><path class="cls-24" d="M95.24,146a.2.2,0,0,1-.13,0,.24.24,0,0,1-.09-.34,2.1,2.1,0,0,1,1.69-.9,1.62,1.62,0,0,1,1.4.39.25.25,0,0,1,0,.35.24.24,0,0,1-.35,0,1.27,1.27,0,0,0-1-.24,1.72,1.72,0,0,0-1.3.66A.24.24,0,0,1,95.24,146Z"/><path class="cls-24" d="M93.87,154l-.38,0a1.71,1.71,0,0,0-.6,0,.25.25,0,0,1-.3-.21.29.29,0,0,1,.18-.34,2.16,2.16,0,0,1,.76,0l.34,0c.26,0,.55-.09.62-.31a1.06,1.06,0,0,0,0-.57,19.64,19.64,0,0,1-.71-4.26.25.25,0,1,1,.5,0,18.79,18.79,0,0,0,.7,4.12,1.66,1.66,0,0,1,0,.92A1.1,1.1,0,0,1,93.87,154Z"/><circle cx="293.77" cy="152" r="1"/><circle cx="299.77" cy="151" r="1"/><path class="cls-17" d="M292.53,150.62a.17.17,0,0,1-.1,0,.23.23,0,0,1-.13-.32,1.16,1.16,0,0,1,.56-.56,2.32,2.32,0,0,1,2-.09.24.24,0,0,1,.13.33.26.26,0,0,1-.33.13,1.84,1.84,0,0,0-1.57.07.7.7,0,0,0-.34.31A.26.26,0,0,1,292.53,150.62Z"/><path class="cls-17" d="M298.53,149.62a.17.17,0,0,1-.1,0,.23.23,0,0,1-.13-.32,1.16,1.16,0,0,1,.56-.56,2.32,2.32,0,0,1,2-.09.24.24,0,0,1,.13.33.26.26,0,0,1-.33.13,1.8,1.8,0,0,0-1.57.07.7.7,0,0,0-.34.31A.26.26,0,0,1,298.53,149.62Z"/><path class="cls-17" d="M298.08,158.84H298a1.3,1.3,0,0,1-1.12-.72.25.25,0,0,1,.14-.33.26.26,0,0,1,.33.14.79.79,0,0,0,.69.41,3.22,3.22,0,0,0,1-.19l.06,0a.22.22,0,0,1,0-.08l-2.36-6.55a.24.24,0,0,1,.15-.32.25.25,0,0,1,.32.15l2.36,6.55a.58.58,0,0,1,0,.53.57.57,0,0,1-.33.21A3.34,3.34,0,0,1,298.08,158.84Z"/><path d="M300,162.48a.49.49,0,0,1-.12.59,1.47,1.47,0,0,1-.58.27,7.52,7.52,0,0,1-3.23.19c.34-.39,1.42-.55,1.92-.67A7.59,7.59,0,0,1,300,162.48Z"/></g></g></svg>