<svg id="Layer_1" data-name="Layer 1" xmlns="http://www.w3.org/2000/svg" viewBox="0 0 658.6 410.6"><path d="M793.11,432.1,784.48,387V370.53a2,2,0,0,0-4,0V387l-8.63,45.06Z" transform="translate(-630.7 -289.16)"/><polygon points="163.04 274.38 163.04 177.45 140.53 177.45 140.53 309.06 145.08 302.06 163.04 274.38"/><path d="M1192.52,676.22,962,515.78V469.06a2,2,0,1,0-4,0v46.72L727.48,676.22h0l-33.82,23.54h78V679.65a3,3,0,0,1,6,0v20.11h31.07V653.85a3,3,0,0,1,6,0v45.91h31.07V628.05a3,3,0,0,1,6,0v71.71h31.07V602.25a3,3,0,0,1,6,0v97.51h31.07V576.46a3,3,0,0,1,6,0v123.3H957V550.66a3,3,0,1,1,6,0v149.1h31.07V575.91a3,3,0,0,1,6,0V699.76h31.07V602.25a3,3,0,0,1,6,0v97.51h31.07V628.05a3,3,0,0,1,6,0v71.71h31.07V653.85a3,3,0,0,1,6,0v45.91h31.07V679.65a3,3,0,0,1,6,0v20.11h78l-33.82-23.54Z" transform="translate(-630.7 -289.16)"/><polygon points="312.63 193.17 297.56 228.85 325.14 219.78 312.63 193.17"/><polygon points="648.38 358.59 619.09 358.59 608.87 410.6 658.6 410.6 648.38 358.59"/><rect x="619.63" y="86.67" width="28.22" height="28.22"/><rect x="619.63" y="120.89" width="28.22" height="231.7"/><path d="M1277.93,369.84l-11.5-61.55V291.16a2,2,0,0,0-4,0v17.13l-11.5,61.55Z" transform="translate(-630.7 -289.16)"/><rect x="140.53" y="148.94" width="22.52" height="22.52"/><polygon points="310.74 230.84 293.17 236.62 293.17 236.62 167.99 277.79 155.29 297.33 140.04 320.83 140.04 320.83 105.92 373.38 289.72 245.47 310.74 230.84"/><rect x="495.56" y="148.94" width="22.51" height="22.52"/><rect x="10.76" y="120.89" width="28.22" height="231.7"/><path d="M669.06,369.84l-11.5-61.55V291.16a2,2,0,1,0-4,0v17.13l-11.5,61.55Z" transform="translate(-630.7 -289.16)"/><polygon points="10.23 358.59 0 410.6 49.74 410.6 39.51 358.59 10.23 358.59"/><rect x="10.76" y="86.67" width="28.22" height="28.22"/><polygon points="518.08 309.06 518.08 177.45 495.56 177.45 495.56 274.38 517.89 308.77 518.08 309.06"/><path d="M1148.15,432.1,1139.52,387V370.53a2,2,0,0,0-4,0V387l-8.63,45.06Z" transform="translate(-630.7 -289.16)"/><polygon points="404.47 270.23 552.68 373.38 518.56 320.83 518.56 320.83 508.58 305.45 490.62 277.79 365.44 236.62 365.43 236.62 347.86 230.84 404.47 270.23"/><polygon points="345.98 193.17 333.46 219.78 361.04 228.85 345.98 193.17"/></svg>