<svg id="Layer_1" data-name="Layer 1" xmlns="http://www.w3.org/2000/svg" viewBox="0 0 769.9 442.6"><defs><style>.cls-1{fill:none;stroke:#000;stroke-linecap:round;stroke-linejoin:round;stroke-width:4px;}</style></defs><rect class="cls-1" x="672.27" y="144.89" width="34.22" height="237.7"/><rect class="cls-1" x="672.27" y="110.67" width="34.22" height="34.22"/><polygon class="cls-1" points="706.49 110.67 672.27 110.67 689.38 19.11 706.49 110.67"/><polygon class="cls-1" points="717.9 440.6 660.87 440.6 672.27 382.59 706.49 382.59 717.9 440.6"/><line class="cls-1" x1="689.38" y1="19.11" x2="689.38" y2="2"/><polygon class="cls-1" points="576.72 346.19 548.21 302.27 548.21 201.45 576.72 201.45 576.72 346.19"/><rect class="cls-1" x="548.21" y="172.94" width="28.52" height="28.52"/><polygon class="cls-1" points="576.72 172.94 548.21 172.94 562.47 98.48 576.72 172.94"/><line class="cls-1" x1="562.47" y1="98.48" x2="562.47" y2="81.37"/><rect class="cls-1" x="649.12" y="431.22" width="34.22" height="237.7" transform="translate(746.75 813.81) rotate(180)"/><rect class="cls-1" x="649.12" y="397" width="34.22" height="34.22" transform="translate(746.75 541.89) rotate(-180)"/><polygon class="cls-1" points="63.41 110.67 97.63 110.67 80.52 19.11 63.41 110.67"/><polygon class="cls-1" points="52 440.6 109.03 440.6 97.63 382.59 63.41 382.59 52 440.6"/><line class="cls-1" x1="80.52" y1="19.11" x2="80.52" y2="2"/><polygon class="cls-1" points="193.17 346.19 221.69 302.27 221.69 201.45 193.17 201.45 193.17 346.19"/><rect class="cls-1" x="778.89" y="459.26" width="28.52" height="28.52" transform="translate(1000.58 660.72) rotate(-180)"/><polygon class="cls-1" points="193.17 172.94 221.69 172.94 207.43 98.48 193.17 172.94"/><line class="cls-1" x1="207.43" y1="98.48" x2="207.43" y2="81.37"/><polygon class="cls-1" points="109.03 440.6 384.95 248.57 660.87 440.6 109.03 440.6"/><polygon class="cls-1" points="384.95 248.57 548.2 302.27 619.19 411.59 384.95 248.57"/><polygon class="cls-1" points="384.95 248.57 221.69 302.27 150.71 411.59 384.95 248.57"/><line class="cls-1" x1="384.95" y1="440.6" x2="384.95" y2="288.5"/><line class="cls-1" x1="422.02" y1="440.6" x2="422.02" y2="313.74"/><line class="cls-1" x1="459.09" y1="440.6" x2="459.09" y2="340.09"/><line class="cls-1" x1="496.16" y1="440.6" x2="496.16" y2="365.89"/><line class="cls-1" x1="533.23" y1="440.6" x2="533.23" y2="391.69"/><line class="cls-1" x1="570.29" y1="440.6" x2="570.29" y2="417.49"/><line class="cls-1" x1="347.88" y1="440.6" x2="347.88" y2="314.29"/><line class="cls-1" x1="310.81" y1="440.6" x2="310.81" y2="340.09"/><line class="cls-1" x1="273.74" y1="440.6" x2="273.74" y2="365.89"/><line class="cls-1" x1="236.67" y1="440.6" x2="236.67" y2="391.69"/><line class="cls-1" x1="199.6" y1="440.6" x2="199.6" y2="417.49"/><polygon class="cls-1" points="347.88 260.77 368.12 212.8 384.95 248.57 347.88 260.77"/><polygon class="cls-1" points="422.02 260.77 401.77 212.8 384.95 248.57 422.02 260.77"/><line class="cls-1" x1="384.95" y1="247.33" x2="384.95" y2="192.9"/><line class="cls-1" x1="2" y1="440.6" x2="767.9" y2="440.6"/></svg>