<svg id="Layer_1" data-name="Layer 1" xmlns="http://www.w3.org/2000/svg" viewBox="0 0 397.3 433.43"><path d="M960,566.42a5.8,5.8,0,0,0-5,2.84c-26.18,43.54-37.18,86-36.56,141.34h83.16c.62-55.38-10.38-97.8-36.56-141.34A5.8,5.8,0,0,0,960,566.42Z" transform="translate(-761.35 -277.17)"/><path d="M1095.21,382.24c-44.67-3.71-90.15-5.6-135.21-5.6s-90.53,1.89-135.21,5.6a139.28,139.28,0,0,0-4.27,31.44H862a3,3,0,0,1,3,3v44.51h190V416.68a3,3,0,0,1,3-3h41.51A138.72,138.72,0,0,0,1095.21,382.24ZM942,433.08H926V401h16Zm24.05,0h-16V401h16Zm24,0h-16V401h16Z" transform="translate(-761.35 -277.17)"/><path d="M1102.52,419.69H1061v44.5a3,3,0,0,1-3,3H862a3,3,0,0,1-3-3v-44.5h-74.4L761.35,710.6H912.43c-.62-56.53,10.63-99.89,37.4-144.43a11.87,11.87,0,0,1,20.34,0c26.77,44.54,38,87.9,37.4,144.43h151.08l-23.27-290.91Z" transform="translate(-761.35 -277.17)"/><path d="M960,370.64c44.48,0,89.37,1.84,133.5,5.45-17.43-57.19-70.68-98.92-133.5-98.92S843.93,318.9,826.5,376.09C870.63,372.48,915.52,370.64,960,370.64Z" transform="translate(-761.35 -277.17)"/></svg>