<svg id="Layer_1" data-name="Layer 1" xmlns="http://www.w3.org/2000/svg" viewBox="0 0 231.64 595"><polygon points="144.75 200.61 149.02 200.61 150.8 189.94 139.13 189.94 92.51 189.94 80.84 189.94 82.62 200.61 144.72 200.61 144.75 200.61"/><polygon points="90.49 106.58 92.27 117.26 92.51 117.26 139.13 117.26 139.37 117.26 141.15 106.58 131.36 106.58 100.29 106.58 90.49 106.58"/><rect x="95.51" y="123.26" width="9.72" height="60.69"/><rect x="111.23" y="123.26" width="9.19" height="60.69"/><path d="M941.36,482.84c.77-39,.68-69.84.62-79.27H926.74c0,9.51,0,40.44-1.32,79.27Z" transform="translate(-836.8 -196.96)"/><polygon points="118.82 100.58 128.36 100.58 128.36 39.9 126.94 39.9 118.82 39.9 118.82 100.58"/><rect x="126.42" y="123.26" width="9.72" height="60.69"/><path d="M978.84,707.14a46.69,46.69,0,0,0-52.43,0c10.93,28.17,8.91,56.68-6,84.82h64.4C969.92,763.82,967.9,735.31,978.84,707.14Z" transform="translate(-836.8 -196.96)"/><path d="M960.73,222.75v8.11H944.51v-8.11a8.13,8.13,0,0,1,6.11-7.87V199a2,2,0,1,1,4,0v15.92A8.13,8.13,0,0,1,960.73,222.75Z" transform="translate(-836.8 -196.96)"/><path d="M894.27,753.15c3.36-16.6.61-33.46-7.33-45.18-10.34-10.18-23.67-11.54-34.81-4.08a24.18,24.18,0,0,1,13.64,8.61c4.35,5.53,6.65,13.14,6.65,22,0,14.34-6,30-16,41.91A60.89,60.89,0,0,1,836.8,792h33.09C882,783.88,890.9,769.8,894.27,753.15Z" transform="translate(-836.8 -196.96)"/><polygon points="112.82 39.9 104.71 39.9 103.29 39.9 103.29 100.58 112.82 100.58 112.82 39.9"/><path d="M920.21,707.8a20.75,20.75,0,0,0-27-1.21c8,13,10.5,30.24,7,47.75-3.07,15.16-10.38,28.43-20.52,37.62h34C929.29,764,931.53,735.7,920.21,707.8Z" transform="translate(-836.8 -196.96)"/><path d="M963.26,403.57c-.06,9.43-.15,40.3.62,79.27h15.94c-1.33-38.83-1.35-69.76-1.32-79.27Z" transform="translate(-836.8 -196.96)"/><path d="M896.71,697.82A26.85,26.85,0,0,1,921.39,701c3.92-11.59,7.1-28.1,9.68-47.49q-11,.59-22,1.78Q903.65,681.66,896.71,697.82Z" transform="translate(-836.8 -196.96)"/><path d="M910.27,649.13Q921,648,931.84,647.47c2.82-22.94,4.87-49.4,6.35-76.3-5.24.19-11,.48-18,.87Q916.3,617.27,910.27,649.13Z" transform="translate(-836.8 -196.96)"/><path d="M976.93,699q-5.07-16.89-8.88-45.79-15.37-.6-30.86,0-3.8,28.85-8.88,45.79A52.6,52.6,0,0,1,976.93,699Z" transform="translate(-836.8 -196.96)"/><path d="M1008.53,697.82q-6.93-16.12-12.32-42.46-11-1.23-22-1.83c2.58,19.39,5.76,35.89,9.68,47.48A26.83,26.83,0,0,1,1008.53,697.82Z" transform="translate(-836.8 -196.96)"/><path d="M1025.61,792c-10.14-9.19-17.45-22.46-20.52-37.62-3.54-17.51-1-34.74,7-47.75a20.76,20.76,0,0,0-27,1.21C973.72,735.7,976,764,991.66,792Z" transform="translate(-836.8 -196.96)"/><path d="M938.52,565.15c1.36-26.19,2.2-52.57,2.71-76.31h-16c-.49,13.14-1.13,27.07-2,41.31Q922.14,549,920.74,566C927.57,565.62,933.31,565.34,938.52,565.15Z" transform="translate(-836.8 -196.96)"/><path d="M946.1,530q-.68,18.36-1.52,35c5.5-.12,10.6-.12,16.09,0q-.85-16.63-1.52-35c-.51-14.18-.89-28.06-1.17-41.15H947.27C947,501.93,946.61,515.81,946.1,530Z" transform="translate(-836.8 -196.96)"/><path d="M967.29,647.21Q963.42,615.59,961,571c-5.71-.13-11-.13-16.72,0q-2.43,44.58-6.3,76.22Q952.65,646.67,967.29,647.21Z" transform="translate(-836.8 -196.96)"/><path d="M957.85,482.84c-.75-38.83-.65-69.76-.59-79.27H948c.06,9.51.17,40.44-.59,79.27Z" transform="translate(-836.8 -196.96)"/><path d="M995,649.19q-6-31.83-10-77.15c-6.92-.39-12.72-.68-18-.87,1.48,26.9,3.53,53.37,6.35,76.31Q984.25,648.05,995,649.19Z" transform="translate(-836.8 -196.96)"/><path d="M980,488.84H964c.51,23.74,1.36,50.12,2.72,76.31,5.2.19,10.95.47,17.78.85q-1.41-17-2.51-35.85C981.16,515.91,980.52,502,980,488.84Z" transform="translate(-836.8 -196.96)"/><path d="M1068.44,792a60.89,60.89,0,0,1-19.64-15.54c-10-11.9-16-27.57-16-41.91,0-8.87,2.3-16.48,6.65-22a24.22,24.22,0,0,1,13.64-8.61c-11.14-7.46-24.47-6.1-34.81,4.08-7.94,11.72-10.69,28.58-7.33,45.18s12.24,30.73,24.38,38.81Z" transform="translate(-836.8 -196.96)"/></svg>