<svg id="Layer_1" data-name="Layer 1" xmlns="http://www.w3.org/2000/svg" viewBox="0 0 283.28 441.04"><defs><style>.cls-1{fill:none;stroke:#000;stroke-linecap:round;stroke-linejoin:round;stroke-width:4px;}</style></defs><rect class="cls-1" x="124.66" y="91.05" width="33.96" height="48.57"/><polygon class="cls-1" points="167.68 151.77 115.6 151.77 113.58 139.63 169.7 139.63 167.68 151.77"/><polygon class="cls-1" points="160.65 91.05 122.63 91.05 120.61 78.91 162.67 78.91 160.65 91.05"/><rect class="cls-1" x="130.32" y="30.33" width="22.63" height="48.57"/><path class="cls-1" d="M919.46,310.2a8.1,8.1,0,1,1,16.19,0v8.09H919.46Z" transform="translate(-785.92 -287.96)"/><line class="cls-1" x1="141.64" y1="14.14" x2="141.64" y2="2"/><path class="cls-1" d="M906.51,439.73s1.62,177.17-25.1,222.5" transform="translate(-785.92 -287.96)"/><path class="cls-1" d="M948.6,439.73S947,616.9,973.7,662.23" transform="translate(-785.92 -287.96)"/><path class="cls-1" d="M933.13,439.73s-1.77,177,16.19,222.5" transform="translate(-785.92 -287.96)"/><path class="cls-1" d="M922,439.73s1.77,177-16.19,222.5" transform="translate(-785.92 -287.96)"/><path class="cls-1" d="M949.32,662.23h0a36.47,36.47,0,0,0-43.53,0h0" transform="translate(-785.92 -287.96)"/><path class="cls-1" d="M973.7,662.23h0c9.61-9.61,22.77-9.61,32.38,0h0" transform="translate(-785.92 -287.96)"/><path class="cls-1" d="M881.41,662.23h0c-9.61-9.61-22.77-9.61-32.38,0h0" transform="translate(-785.92 -287.96)"/><path class="cls-1" d="M905.79,662.23h0a17.28,17.28,0,0,0-24.38,0h0" transform="translate(-785.92 -287.96)"/><path class="cls-1" d="M973.7,662.23h0c-13,18.86-7.06,51.64,13.44,64.77" transform="translate(-785.92 -287.96)"/><path class="cls-1" d="M949.32,662.23h0a17.28,17.28,0,0,1,24.38,0" transform="translate(-785.92 -287.96)"/><path class="cls-1" d="M857,662.23" transform="translate(-785.92 -287.96)"/><path class="cls-1" d="M949.32,662.23Q936,694.62,954.71,727" transform="translate(-785.92 -287.96)"/><path class="cls-1" d="M905.79,662.23q13.37,32.38-5.39,64.77" transform="translate(-785.92 -287.96)"/><path class="cls-1" d="M1006.08,662.23c-32.38,0-18.94,64.77,24.69,64.77" transform="translate(-785.92 -287.96)"/><path class="cls-1" d="M881.41,662.23h0c13,18.86,7.06,51.64-13.44,64.77" transform="translate(-785.92 -287.96)"/><path class="cls-1" d="M849,662.23c32.38,0,18.94,64.77-24.69,64.77" transform="translate(-785.92 -287.96)"/><line class="cls-1" x1="2" y1="439.04" x2="281.28" y2="439.04"/><line class="cls-1" x1="136.11" y1="139.63" x2="136.11" y2="91.05"/><line class="cls-1" x1="147.17" y1="139.63" x2="147.17" y2="91.05"/><line class="cls-1" x1="141.64" y1="78.91" x2="141.64" y2="30.33"/><path class="cls-1" d="M894,623.27a291.3,291.3,0,0,1,66.78,0" transform="translate(-785.92 -287.96)"/><path class="cls-1" d="M901.94,562.55c22.34-1.28,29.06-1.27,51.23,0" transform="translate(-785.92 -287.96)"/><path class="cls-1" d="M905.48,501.83h44.15" transform="translate(-785.92 -287.96)"/></svg>